<svg xmlns="http://www.w3.org/2000/svg" fill="none" viewBox="0 0 64 64" height="64" width="64">
<rect fill="#731AAE" rx="17.8605" height="64" width="64"/>
<path fill-opacity="0.32" fill="#21F2B2" d="M35.052 12.5978C35.9769 12.5978 36.9899 12.5581 37.9148 12.5581C46.9875 12.5581 45.5782 23.9629 45.5782 26.8638C45.5782 31.4337 44.8735 37.9905 39.4122 38.7852C38.3992 38.825 37.4303 38.825 36.4173 38.8647C36.2852 38.8647 36.109 38.825 35.9769 38.825C34.6556 38.9442 32.6296 38.7058 32.5416 39.9376C32.5416 43.8717 32.8939 47.8853 33.026 51.8193C33.026 53.9652 29.0181 53.8062 27.9171 53.9254C26.2435 53.9254 25.9352 41.5669 25.759 38.7852C25.759 38.5468 25.759 38.3084 25.759 38.0699C25.759 36.9573 25.803 35.8844 25.803 34.7717C25.803 33.7385 25.6709 32.745 25.6709 31.7119C25.6709 30.5197 25.7149 29.3673 25.7149 28.1752C25.7149 27.7381 25.7149 27.2612 25.7149 26.7843C25.7149 23.2079 25.9792 19.6712 26.0673 16.2537C26.0673 15.6179 25.9792 14.9821 25.9792 14.3463C25.9792 13.2337 30.0752 12.5978 32.4975 12.5978C32.982 12.5978 33.4664 12.5978 33.9509 12.5978C34.3033 12.5978 34.6996 12.5978 35.052 12.5978ZM31.8369 22.4529C31.7928 22.4529 31.7928 22.4529 31.7488 22.4529C32.013 26.5459 31.5726 33.5795 33.2462 33.5795C36.5494 33.5795 39.4122 33.063 39.4122 29.5263C39.4122 25.7909 39.7205 18.1214 36.2852 18.1214C35.1841 18.1214 34.2592 18.3201 33.2462 18.4393C31.3964 18.6778 31.8369 20.6647 31.8369 22.4529Z"/>
<path fill="#21F2B2" d="M33.1946 11.2023C34.1195 11.2023 35.1324 11.1626 36.0573 11.1626C45.1301 11.1626 43.7208 22.5674 43.7208 25.4683C43.7208 30.0382 43.0161 36.595 37.5548 37.3897C36.5418 37.4295 35.5729 37.4295 34.5599 37.4692C34.4278 37.4692 34.2516 37.4295 34.1195 37.4295C32.7982 37.5487 30.7722 37.3102 30.6841 38.5421C30.6841 42.4762 31.0365 46.4897 31.1686 50.4238C31.1686 52.5697 27.1607 52.4107 26.0597 52.5299C24.386 52.5299 24.0777 40.1714 23.9016 37.3897C23.9016 37.1513 23.9016 36.9129 23.9016 36.6744C23.9016 35.5618 23.9456 34.4888 23.9456 33.3762C23.9456 32.343 23.8135 31.3495 23.8135 30.3163C23.8135 29.1242 23.8575 27.9718 23.8575 26.7797C23.8575 26.3425 23.8575 25.8657 23.8575 25.3888C23.8575 21.8124 24.1218 18.2757 24.2099 14.8582C24.2099 14.2224 24.1218 13.5866 24.1218 12.9508C24.1218 11.8381 28.2177 11.2023 30.6401 11.2023C31.1246 11.2023 31.609 11.2023 32.0935 11.2023C32.4458 11.2023 32.8422 11.2023 33.1946 11.2023ZM29.9794 21.0574C29.9354 21.0574 29.9354 21.0574 29.8914 21.0574C30.1556 25.1504 29.7152 32.184 31.3888 32.184C34.692 32.184 37.5548 31.6674 37.5548 28.1308C37.5548 24.3954 37.8631 16.7259 34.4278 16.7259C33.3267 16.7259 32.4018 16.9246 31.3888 17.0438C29.539 17.2823 29.9794 19.2692 29.9794 21.0574Z"/>
</svg>
