<svg width="18" height="17" viewBox="0 0 18 17" fill="none" xmlns="http://www.w3.org/2000/svg">
<path fill-rule="evenodd" clip-rule="evenodd" d="M0.875 8.5C0.875 7.45102 1.57979 6.56665 2.54167 6.2946L2.54167 1C2.54167 0.654822 2.82149 0.375 3.16667 0.375C3.51184 0.375 3.79167 0.654822 3.79167 1L3.79167 6.2946C4.75354 6.56665 5.45833 7.45102 5.45833 8.5C5.45833 9.54898 4.75354 10.4333 3.79167 10.7054L3.79167 16C3.79167 16.3452 3.51184 16.625 3.16667 16.625C2.82149 16.625 2.54167 16.3452 2.54167 16L2.54167 10.7054C1.57979 10.4333 0.875 9.54898 0.875 8.5ZM9.625 2.12793V1C9.625 0.654822 9.34518 0.375 9 0.375C8.65482 0.375 8.375 0.654822 8.375 1V2.12793C7.41312 2.39998 6.70833 3.28435 6.70833 4.33333C6.70833 5.59899 7.73435 6.625 9 6.625C10.2657 6.625 11.2917 5.59899 11.2917 4.33333C11.2917 3.28435 10.5869 2.39998 9.625 2.12793ZM9 16.625C8.65482 16.625 8.375 16.3452 8.375 16V8.5C8.375 8.15482 8.65482 7.875 9 7.875C9.34518 7.875 9.625 8.15482 9.625 8.5V16C9.625 16.3452 9.34518 16.625 9 16.625ZM14.8333 9.125C14.4882 9.125 14.2083 8.84518 14.2083 8.5L14.2083 1C14.2083 0.654822 14.4882 0.375 14.8333 0.375C15.1785 0.375 15.4583 0.654822 15.4583 1V8.5C15.4583 8.84518 15.1785 9.125 14.8333 9.125ZM14.8333 16.625C14.4882 16.625 14.2083 16.3452 14.2083 16L14.2083 14.8721C13.2465 14.6 12.5417 13.7156 12.5417 12.6667C12.5417 11.401 13.5677 10.375 14.8333 10.375C16.099 10.375 17.125 11.401 17.125 12.6667C17.125 13.7156 16.4202 14.6 15.4583 14.8721V16C15.4583 16.3452 15.1785 16.625 14.8333 16.625Z" fill="#110516"/>
</svg>
