<svg width="24" height="24" viewBox="0 0 24 24" fill="none" xmlns="http://www.w3.org/2000/svg">
<path d="M17.2316 7.38154L17.2392 7.3901L17.0327 7.48998L17.0397 7.49785L16.8377 7.60434L16.8388 7.6056L16.6377 7.71161L16.6392 7.71334L16.4374 7.81974L16.4386 7.82109L16.2373 7.9272L16.2387 7.92884L15.9938 8.05793L15.9934 8.05751L15.8509 8.13267L15.8603 8.14331L15.6585 8.24971L15.6597 8.25106L15.4584 8.35717L15.4598 8.35881L15.2149 8.50925L15.206 8.4992L15.0143 8.617L15.0063 8.60792L14.8144 8.72576L14.8045 8.71454L14.6138 8.83249L14.6124 8.83095L14.4362 8.93922L14.4282 8.9302L14.3467 8.98293C14.3073 8.9998 14.2759 9.03024 14.2584 9.06831L14.2561 9.06567C14.2216 9.12318 14.1923 9.18874 14.1923 9.24112V9.3265L14.1911 9.32516V9.58337L14.1923 9.58469V9.82153C14.2003 9.83737 14.2054 9.85307 14.2108 9.8697C14.2203 9.89898 14.2307 9.93113 14.2596 9.97197C14.2746 9.98686 14.2871 10.0017 14.2988 10.0157C14.3214 10.0427 14.3412 10.0663 14.371 10.0797L14.806 10.3368L14.7692 10.2952L14.8769 10.3787L14.8818 10.3816H14.9049L14.9171 10.3953C14.9556 10.4077 14.996 10.414 15.0367 10.414C15.0905 10.414 15.1437 10.403 15.1928 10.3816L15.1962 10.3854C15.2022 10.3832 15.2081 10.3816 15.2139 10.3816L15.3514 10.2987L15.3484 10.2952L15.5497 10.1891L15.5482 10.1875L15.7501 10.081L15.749 10.0797L15.9344 9.98195L15.9265 9.97298L16.1285 9.8665L16.1274 9.86524L16.3285 9.75922L16.3269 9.75749L16.529 9.651L16.5278 9.64974L16.729 9.54372L16.7274 9.54199L16.9294 9.43552L16.9283 9.43425L17.1732 9.28482L17.3497 9.17606L17.3594 9.18704L17.5506 9.06831L17.56 9.07892L17.7502 8.96158L17.7593 8.97196L17.9508 8.85384L17.9598 8.86399L18.1108 8.77123L18.1074 8.76743L18.2937 8.66923L18.2852 8.65969L18.4863 8.55369L18.4848 8.55194L18.6862 8.44578L18.6856 8.44521L18.8868 8.3392L18.8852 8.33746L19.0871 8.23104L19.0859 8.22972L19.2872 8.12362L19.2857 8.12197L19.473 8.02369L19.4646 8.01422L19.6712 7.91432L19.6642 7.90647L19.8654 7.80041L19.8648 7.79974L20.066 7.6937L20.0645 7.692L20.2665 7.58552L20.2654 7.58425L20.4665 7.47824L20.4649 7.4765L20.7098 7.32606L20.7184 7.33633L20.9106 7.21832L20.9136 7.22274L21 7.17562L20.9989 7.43381L20.999 8.33642L20.9999 8.33746L21 9.06831L20.9991 9.0673L20.9989 11.3064L20.9991 11.3066V11.7152L20.9989 11.715L20.999 16.3412L20.9989 16.4276C20.9958 16.4769 20.9868 16.5255 20.9721 16.5726L20.9769 16.5781C20.9563 16.652 20.9238 16.7221 20.8806 16.7859L20.8874 16.7936C20.8658 16.8145 20.8441 16.8376 20.8223 16.8609C20.7793 16.9068 20.7358 16.9531 20.6925 16.9828L20.6668 17.0081L20.5105 17.0836L20.3454 17.1707L20.3536 17.1798L20.1527 17.2862L20.154 17.2876L19.9527 17.3937L19.9541 17.3953L19.7526 17.502L19.7535 17.5031L19.5086 17.6535L19.4997 17.6435L19.3088 17.7613L19.3072 17.7595L19.1302 17.869L19.121 17.8586L18.9713 17.9506L18.9746 17.9544L18.7735 18.0604L18.775 18.0621L18.573 18.1686L18.5742 18.1699L18.3881 18.268L18.3966 18.2776L18.1946 18.3841L18.1957 18.3854L17.9947 18.4905L17.9962 18.4921L17.7947 18.5992L17.7953 18.5999L17.5941 18.7059L17.5957 18.7076L17.3497 18.8581L17.349 18.8572L17.173 18.9658L17.1641 18.9558L16.9724 19.0735L16.9635 19.0635L16.8134 19.1561L16.8168 19.1599L16.6156 19.266L16.6162 19.2667L16.4299 19.3649L16.4384 19.3744L16.2373 19.4804L16.2388 19.4822L16.0365 19.5884L16.0379 19.5899L15.8368 19.6959L15.8383 19.6977L15.6364 19.8041L15.6376 19.8054L15.3927 19.9559L15.3914 19.9544L15.2149 20.0636L15.2055 20.053L15.0152 20.1703L15.0063 20.1603L14.8548 20.2534L14.8577 20.2567L14.6571 20.3624L14.659 20.3645L14.472 20.463L14.4802 20.4722L14.2794 20.5785L14.2807 20.58L14.0793 20.6861L14.0798 20.6867L13.8789 20.7931L13.8801 20.7945L13.6776 20.9012L13.6794 20.9032L13.4941 21.0013L13.5018 21.0099L13.2569 21.1604L13.2482 21.1508L13.0572 21.2681L13.0477 21.2575L12.8575 21.3749L12.8485 21.3648L12.6975 21.4575L12.7008 21.4613L12.5002 21.5679L12.5011 21.569L12.3143 21.6675L12.3225 21.6768L12.1213 21.7828L12.1228 21.7845L11.9208 21.8909L11.922 21.8923L11.8547 21.9349C11.8352 21.9413 11.8156 21.9477 11.796 21.9541L11.7952 21.9543C11.7488 21.9695 11.7022 21.9847 11.655 21.999L11.6479 21.9909C11.5987 22 11.5494 22 11.4995 22L11.4333 22L11.4318 22H11.366L11.3622 21.9957C11.2904 21.9874 11.2157 21.9668 11.1663 21.9349L10.8541 21.7632L10.8519 21.7607L10.2761 21.4399L10.2756 21.4394L9.81217 21.1813L9.83145 21.2031L9.23461 20.8608L9.25232 20.8809L8.54075 20.4722L8.52291 20.4521L7.93954 20.1276L7.93831 20.1263L7.36146 19.8054L7.35867 19.8023L6.78233 19.4822L6.7811 19.4808L6.20424 19.1599L6.20123 19.1566L5.73858 18.8992L5.75964 18.9231L5.16583 18.5821L5.18156 18.5999L4.44687 18.1912L4.41747 18.1579L3.86879 17.869L3.83002 17.8248L3.2907 17.5244L3.29011 17.5238L2.85736 17.2825L2.33319 17.0081C2.26285 16.9654 2.19598 16.8991 2.14085 16.8213C2.13849 16.8188 2.13607 16.8164 2.13358 16.8139L2.14005 16.8202C2.0564 16.7016 2 16.5564 2 16.4266V7.17562L2.17763 7.26202L2.2065 7.29456L2.60649 7.5051L2.60005 7.49785L2.68228 7.545L2.75685 7.58425L2.76317 7.59138L3.19537 7.83921L3.17927 7.82109L3.77514 8.16328L3.75741 8.14331L4.46898 8.53059L4.4835 8.54695L4.93802 8.79397L4.91451 8.76743L5.62608 9.17606L5.6279 9.17812L6.11677 9.44973L6.78239 9.80018L6.81675 9.83894L7.2292 10.0634L7.20583 10.037L7.80194 10.3793L7.78407 10.3592L8.37954 10.701L8.36307 10.6825L9.07359 11.0698L9.10088 11.1006L9.50263 11.3127L9.49719 11.3066L9.61024 11.3695L9.65288 11.392L9.65495 11.3943L10.2319 11.7152L10.2374 11.7214L10.565 11.9084C10.6091 11.9307 10.6532 11.9948 10.6532 12.0375L10.6535 12.8547L10.6544 12.8557V13.2644L10.6535 13.2633L10.6534 14.1668L10.6545 14.168L10.6544 14.9212L10.6533 14.92V15.1567L10.6545 15.1581L10.6543 16.4915L10.6545 16.4917L10.6544 19.0085C10.6547 19.0609 10.6691 19.1124 10.6964 19.1577C10.7238 19.2031 10.7629 19.2406 10.81 19.2667L11.2998 19.5249L11.3035 19.5291L11.3429 19.5462C11.3881 19.5676 11.4333 19.5879 11.5005 19.5879H11.5216C11.5302 19.5879 11.5425 19.5847 11.5555 19.5809L11.5436 19.5676C11.5888 19.5676 11.633 19.5676 11.6771 19.5472L11.8337 19.4608L11.8366 19.464L12.0334 19.3531L12.0366 19.3566L12.1856 19.2703L12.189 19.2667C12.1963 19.2645 12.2036 19.2615 12.2108 19.2578C12.2111 19.2549 12.2111 19.2512 12.2111 19.2463L12.2178 19.254C12.262 19.2287 12.3033 19.1783 12.3279 19.1223L12.3225 19.1162C12.3278 19.1106 12.3327 19.1047 12.3372 19.0985C12.34 19.0902 12.3425 19.0819 12.3445 19.0735H12.3456L12.3497 19.0782C12.3608 19.0567 12.367 19.0329 12.3677 19.0085V18.7515L12.3677 18.4923L12.3676 18.4921L12.3678 17.1812L12.3665 17.1798V16.7712L12.3676 16.7724L12.3677 16.192L12.3667 16.1908L12.3667 15.1143L12.3676 15.1154V14.8572L12.3667 14.8562L12.3665 13.7807L12.3677 13.7821L12.3676 11.1989C12.3676 11.1883 12.362 11.1778 12.3563 11.1671C12.3504 11.1562 12.3445 11.1451 12.3445 11.1338L12.363 11.1546C12.3432 11.0627 12.2662 10.9775 12.1891 10.9407L12.0198 10.8313L11.4101 10.5107L11.3793 10.4759L10.8321 10.1875L10.7975 10.1483L10.3877 9.92585L10.4096 9.95062L9.81367 9.6084L9.83137 9.62839L9.23654 9.28731L9.25235 9.30515L8.54078 8.91787L8.52658 8.90182L7.96256 8.59565L7.93268 8.56188L7.53146 8.35038L7.53896 8.35881L7.38904 8.27531L7.38354 8.27241L7.38325 8.27208L6.80532 7.95018L6.80339 7.94801L6.22734 7.62796L5.67041 7.32606L5.65574 7.30943L5.09322 7.00282L5.07976 6.98759L4.6239 6.74014L4.64755 6.767L3.93598 6.35736L3.93543 6.35674L3.47407 6.09977L2.77785 5.73425L2.74829 5.69919L2.48971 5.56145L2.58708 5.50801L2.57815 5.49741L2.84512 5.36832L2.85687 5.38154L3.00207 5.305L3.00053 5.30326L3.20255 5.19677L3.20144 5.19552L3.40194 5.08983L3.40102 5.08879L3.60303 4.9823L3.60192 4.98104L3.80303 4.87503L3.8015 4.87329L4.04639 4.7442L4.05808 4.7574L4.20343 4.68078L4.20198 4.67914L4.4032 4.57307L4.40262 4.57241L4.60391 4.46631L4.60246 4.46467L4.80407 4.35801L4.8031 4.35692L5.00439 4.25081L5.00294 4.24917L5.24784 4.12109L5.25884 4.13352L5.40398 4.05668L5.40342 4.05604L5.60526 3.94964L5.60406 3.94829L5.80536 3.84218L5.8039 3.84055L6.00574 3.73415L6.00454 3.7328L6.20565 3.62679L6.20412 3.62505L6.44901 3.49596L6.46128 3.50978L6.60563 3.43309L6.6046 3.43192L6.80662 3.32543L6.8055 3.32417L7.00662 3.21816L7.00508 3.21643L7.21257 3.11609L7.20599 3.10868L7.41254 3.0088L7.40556 3.00093L7.67253 2.87184L7.67983 2.88007L7.81302 2.81567L7.80604 2.8078L8.01334 2.70756L8.00668 2.70005L8.21343 2.60008L8.20652 2.59231L8.41457 2.49289L8.40716 2.48456L8.61328 2.38489L8.607 2.37783L8.87397 2.24873L8.88564 2.26187L9.03138 2.18472L9.03046 2.18368L9.23147 2.07726L9.2303 2.07593L9.43214 1.96954L9.43094 1.96819L9.63134 1.86209L9.63078 1.86145L9.87568 1.73236L9.8845 1.74231L10.0753 1.62461L10.0865 1.63722L10.2334 1.56129L10.2319 1.55956L10.4329 1.45314L10.4317 1.45181L10.633 1.34574L10.6324 1.34508L10.8332 1.23876L10.832 1.23733L11.0769 1.10824L11.0903 1.12339L11.1663 1.0869C11.1792 1.07384 11.2072 1.06113 11.2372 1.04856L11.2324 1.04319C11.2463 1.03983 11.2603 1.03647 11.2742 1.03319C11.2832 1.0294 11.2918 1.02562 11.2998 1.02184V1.02286L11.3031 1.02655C11.3683 1.01199 11.4338 1.00049 11.4994 1.00049C11.5167 0.999834 11.5341 0.999837 11.5513 1.00049H11.5667L11.5674 1.00131C11.6688 1.00763 11.7677 1.03681 11.8559 1.0869L11.9894 1.15093L11.9971 1.15969L12.417 1.37584L12.3898 1.34508L12.9299 1.63174L12.9236 1.62461L13.6131 1.99055L13.6195 1.99773L14.147 2.27008L14.1496 2.27296L14.7031 2.54961L14.7238 2.57282L15.2372 2.83016L15.2432 2.83694L15.7711 3.10868L15.7739 3.11179L16.327 3.38821L16.335 3.39724L16.8609 3.66876L16.8671 3.67579L17.3949 3.94829L17.3977 3.95142L17.9508 4.22783L17.9565 4.2342L18.4847 4.50736L18.4916 4.51522L19.0198 4.78587L19.0259 4.79278L19.5759 5.06642L19.5837 5.07531L20.1099 5.34697L20.1133 5.35081L20.5322 5.56145L20.375 5.64583L20.3768 5.64785L20.1749 5.75427L20.1761 5.7556L19.9754 5.86138L19.9763 5.86233L19.7743 5.9688L19.7754 5.97008L19.5895 6.0685L19.5978 6.07782L19.3905 6.17807L19.3972 6.18557L19.1959 6.29168L19.1974 6.29332L18.9955 6.39974L18.9966 6.40106L18.7955 6.50707L18.7971 6.50881L18.5511 6.65823L18.5428 6.64882L18.3525 6.767L18.3487 6.76269L18.1517 6.87373L18.1506 6.87249L17.9739 6.98147L17.965 6.97142L17.8141 7.06408L17.8175 7.06788L17.6165 7.17429L17.6176 7.17562L17.4161 7.28231L17.4171 7.28337L17.2316 7.38154Z" fill="#BB0033"/>
<path d="M12.3677 18.7515L12.3666 18.7503H12.3677V18.7515Z" fill="#BB0033"/>
</svg>
