<svg width="14" height="14" viewBox="0 0 14 14" fill="none" xmlns="http://www.w3.org/2000/svg">
<path d="M8.00012 1.00012C8.00012 0.447837 7.55241 0.00012207 7.00012 0.00012207C6.44784 0.00012207 6.00012 0.447837 6.00012 1.00012V6.00012H1.00012C0.447837 6.00012 0.00012207 6.44784 0.00012207 7.00012C0.00012207 7.55241 0.447837 8.00012 1.00012 8.00012H6.00012V13.0001C6.00012 13.5524 6.44784 14.0001 7.00012 14.0001C7.55241 14.0001 8.00012 13.5524 8.00012 13.0001V8.00012H13.0001C13.5524 8.00012 14.0001 7.55241 14.0001 7.00012C14.0001 6.44784 13.5524 6.00012 13.0001 6.00012H8.00012V1.00012Z" fill="#110516" fill-opacity="0.8"/>
</svg>
