<svg width="20" height="20" viewBox="0 0 20 20" fill="none" xmlns="http://www.w3.org/2000/svg">
<path d="M3.3335 5.00008C3.3335 4.53984 3.70659 4.16675 4.16683 4.16675H15.8335C16.2937 4.16675 16.6668 4.53984 16.6668 5.00008C16.6668 5.46032 16.2937 5.83341 15.8335 5.83341H4.16683C3.70659 5.83341 3.3335 5.46032 3.3335 5.00008Z" fill="#110516"/>
<path d="M3.3335 10.0001C3.3335 9.53984 3.70659 9.16675 4.16683 9.16675H15.8335C16.2937 9.16675 16.6668 9.53984 16.6668 10.0001C16.6668 10.4603 16.2937 10.8334 15.8335 10.8334H4.16683C3.70659 10.8334 3.3335 10.4603 3.3335 10.0001Z" fill="#110516"/>
<path d="M4.16683 14.1667C3.70659 14.1667 3.3335 14.5398 3.3335 15.0001C3.3335 15.4603 3.70659 15.8334 4.16683 15.8334H15.8335C16.2937 15.8334 16.6668 15.4603 16.6668 15.0001C16.6668 14.5398 16.2937 14.1667 15.8335 14.1667H4.16683Z" fill="#110516"/>
</svg>
