<svg width="16" height="16" viewBox="0 0 16 16" fill="none" xmlns="http://www.w3.org/2000/svg">
<path fill-rule="evenodd" clip-rule="evenodd" d="M0.240094 4.8001C0.312317 4.86708 0.397027 4.91918 0.489387 4.95342C0.581747 4.98766 0.679947 5.00337 0.77838 4.99966C0.876812 4.99594 0.973549 4.97288 1.06307 4.93177C1.15258 4.89067 1.23312 4.83233 1.30009 4.7601L3.25009 2.6601V11.2501C3.25009 11.449 3.32911 11.6398 3.46976 11.7804C3.61042 11.9211 3.80118 12.0001 4.00009 12.0001C4.19901 12.0001 4.38977 11.9211 4.53042 11.7804C4.67108 11.6398 4.75009 11.449 4.75009 11.2501V2.6601L6.70009 4.7601C6.76707 4.83233 6.84761 4.89065 6.93713 4.93175C7.02665 4.97285 7.12338 4.99592 7.22181 4.99963C7.32024 5.00335 7.41844 4.98764 7.5108 4.9534C7.60316 4.91916 7.68787 4.86707 7.76009 4.8001C7.83232 4.73312 7.89065 4.65258 7.93175 4.56306C7.97285 4.47355 7.99591 4.37681 7.99963 4.27838C8.00334 4.17995 7.98763 4.08175 7.9534 3.9894C7.91916 3.89704 7.86707 3.81232 7.80009 3.7401L4.55009 0.240098C4.47989 0.164369 4.3948 0.103955 4.30016 0.0626404C4.20551 0.0213255 4.10336 0 4.00009 0C3.89683 0 3.79467 0.0213255 3.70003 0.0626404C3.60539 0.103955 3.5203 0.164369 3.45009 0.240098L0.200094 3.7401C0.133112 3.81232 0.0810128 3.89703 0.0467719 3.98939C0.012531 4.08175 -0.00318098 4.17995 0.000533453 4.27838C0.00424789 4.37682 0.0273159 4.47355 0.06842 4.56307C0.109524 4.65259 0.167859 4.73313 0.240094 4.8001ZM8.24009 11.2001C8.16786 11.2671 8.10952 11.3476 8.06842 11.4371C8.02732 11.5266 8.00425 11.6234 8.00053 11.7218C7.99682 11.8202 8.01253 11.9184 8.04677 12.0108C8.08101 12.1032 8.13311 12.1879 8.20009 12.2601L11.4501 15.7601C11.5203 15.8358 11.6054 15.8962 11.7 15.9376C11.7947 15.9789 11.8968 16.0002 12.0001 16.0002C12.1034 16.0002 12.2055 15.9789 12.3002 15.9376C12.3948 15.8962 12.4799 15.8358 12.5501 15.7601L15.8001 12.2601C15.8671 12.1879 15.9192 12.1032 15.9534 12.0108C15.9876 11.9184 16.0033 11.8202 15.9996 11.7218C15.9959 11.6234 15.9728 11.5266 15.9317 11.4371C15.8906 11.3476 15.8323 11.2671 15.7601 11.2001C15.6879 11.1331 15.6032 11.081 15.5108 11.0468C15.4184 11.0126 15.3202 10.9969 15.2218 11.0006C15.1234 11.0043 15.0266 11.0273 14.9371 11.0684C14.8476 11.1095 14.7671 11.1679 14.7001 11.2401L12.7501 13.3401V4.7501C12.7501 4.55119 12.6711 4.36042 12.5304 4.21977C12.3898 4.07912 12.199 4.0001 12.0001 4.0001C11.8012 4.0001 11.6104 4.07912 11.4698 4.21977C11.3291 4.36042 11.2501 4.55119 11.2501 4.7501V13.3401L9.30009 11.2401C9.23312 11.1679 9.15258 11.1095 9.06307 11.0684C8.97355 11.0273 8.87681 11.0043 8.77838 11.0005C8.67995 10.9968 8.58175 11.0125 8.48939 11.0468C8.39703 11.081 8.31232 11.1331 8.24009 11.2001Z" fill="#110516"/>
</svg>
